<svg width="331" height="59" viewBox="0 0 331 59" fill="none" xmlns="http://www.w3.org/2000/svg">
<path d="M0.47275 47V3.096H23.1288C25.6461 3.096 27.8221 3.544 29.6568 4.44C31.4914 5.29333 32.8994 6.50933 33.8808 8.088C34.9048 9.66666 35.4168 11.544 35.4168 13.72C35.4168 15.384 35.1181 16.92 34.5208 18.328C33.9234 19.736 33.0914 20.9093 32.0248 21.848C30.9581 22.7867 29.7421 23.4907 28.3768 23.96V24.216C29.9128 24.5573 31.2994 25.176 32.5368 26.072C33.7741 26.968 34.7554 28.1627 35.4808 29.656C36.2488 31.1067 36.6328 32.8987 36.6328 35.032C36.6328 37.8907 36.0354 40.1947 34.8408 41.944C33.6461 43.6933 32.0461 44.9733 30.0408 45.784C28.0354 46.5947 25.7314 47 23.1288 47H0.47275ZM6.55275 41.752H23.0648C25.2408 41.752 27.0114 41.1973 28.3768 40.088C29.7421 38.936 30.4248 37.0373 30.4248 34.392C30.4248 32.7707 30.1261 31.4267 29.5288 30.36C28.9314 29.2507 28.0568 28.44 26.9048 27.928C25.7528 27.3733 24.3021 27.096 22.5528 27.096H6.55275V41.752ZM6.55275 21.912H21.9768C23.4274 21.912 24.6861 21.6347 25.7528 21.08C26.8194 20.4827 27.6514 19.672 28.2488 18.648C28.8888 17.5813 29.2088 16.3867 29.2088 15.064C29.2088 12.76 28.5901 11.0747 27.3528 10.008C26.1154 8.89867 24.4728 8.344 22.4248 8.344H6.55275V21.912ZM57.8963 47.768C54.4829 47.768 51.6029 47.1493 49.2563 45.912C46.9523 44.632 45.1816 42.6907 43.9443 40.088C42.7496 37.4853 42.1523 34.1787 42.1523 30.168C42.1523 26.1147 42.7496 22.808 43.9443 20.248C45.1816 17.6453 46.9523 15.7253 49.2563 14.488C51.6029 13.208 54.4829 12.568 57.8963 12.568C61.3096 12.568 64.1683 13.208 66.4723 14.488C68.8189 15.7253 70.5896 17.6453 71.7843 20.248C72.9789 22.808 73.5763 26.1147 73.5763 30.168C73.5763 34.1787 72.9789 37.4853 71.7843 40.088C70.5896 42.6907 68.8189 44.632 66.4723 45.912C64.1683 47.1493 61.3096 47.768 57.8963 47.768ZM57.8963 43.032C60.0723 43.032 61.8856 42.6053 63.3363 41.752C64.7869 40.8987 65.8749 39.576 66.6003 37.784C67.3683 35.9493 67.7523 33.6453 67.7523 30.872V29.464C67.7523 26.648 67.3683 24.344 66.6003 22.552C65.8749 20.76 64.7869 19.4373 63.3363 18.584C61.8856 17.7307 60.0723 17.304 57.8963 17.304C55.7203 17.304 53.8856 17.7307 52.3923 18.584C50.9416 19.4373 49.8536 20.76 49.1283 22.552C48.4029 24.344 48.0403 26.648 48.0403 29.464V30.872C48.0403 33.6453 48.4029 35.9493 49.1283 37.784C49.8536 39.576 50.9416 40.8987 52.3923 41.752C53.8856 42.6053 55.7203 43.032 57.8963 43.032ZM94.3963 47.768C90.9829 47.768 88.1029 47.1493 85.7563 45.912C83.4523 44.632 81.6816 42.6907 80.4443 40.088C79.2496 37.4853 78.6523 34.1787 78.6523 30.168C78.6523 26.1147 79.2496 22.808 80.4443 20.248C81.6816 17.6453 83.4523 15.7253 85.7563 14.488C88.1029 13.208 90.9829 12.568 94.3963 12.568C97.8096 12.568 100.668 13.208 102.972 14.488C105.319 15.7253 107.09 17.6453 108.284 20.248C109.479 22.808 110.076 26.1147 110.076 30.168C110.076 34.1787 109.479 37.4853 108.284 40.088C107.09 42.6907 105.319 44.632 102.972 45.912C100.668 47.1493 97.8096 47.768 94.3963 47.768ZM94.3963 43.032C96.5723 43.032 98.3856 42.6053 99.8363 41.752C101.287 40.8987 102.375 39.576 103.1 37.784C103.868 35.9493 104.252 33.6453 104.252 30.872V29.464C104.252 26.648 103.868 24.344 103.1 22.552C102.375 20.76 101.287 19.4373 99.8363 18.584C98.3856 17.7307 96.5723 17.304 94.3963 17.304C92.2203 17.304 90.3856 17.7307 88.8923 18.584C87.4416 19.4373 86.3536 20.76 85.6283 22.552C84.9029 24.344 84.5403 26.648 84.5403 29.464V30.872C84.5403 33.6453 84.9029 35.9493 85.6283 37.784C86.3536 39.576 87.4416 40.8987 88.8923 41.752C90.3856 42.6053 92.2203 43.032 94.3963 43.032ZM117.072 47V0.727997H122.704V29.656L136.976 13.336H143.632L132.112 26.392L144.272 47H137.808L128.464 30.552L122.704 36.376V47H117.072ZM151.035 47V3.096H173.691C176.209 3.096 178.385 3.544 180.219 4.44C182.054 5.29333 183.462 6.50933 184.443 8.088C185.467 9.66666 185.979 11.544 185.979 13.72C185.979 15.384 185.681 16.92 185.083 18.328C184.486 19.736 183.654 20.9093 182.587 21.848C181.521 22.7867 180.305 23.4907 178.939 23.96V24.216C180.475 24.5573 181.862 25.176 183.099 26.072C184.337 26.968 185.318 28.1627 186.043 29.656C186.811 31.1067 187.195 32.8987 187.195 35.032C187.195 37.8907 186.598 40.1947 185.403 41.944C184.209 43.6933 182.609 44.9733 180.603 45.784C178.598 46.5947 176.294 47 173.691 47H151.035ZM157.115 41.752H173.627C175.803 41.752 177.574 41.1973 178.939 40.088C180.305 38.936 180.987 37.0373 180.987 34.392C180.987 32.7707 180.689 31.4267 180.091 30.36C179.494 29.2507 178.619 28.44 177.467 27.928C176.315 27.3733 174.865 27.096 173.115 27.096H157.115V41.752ZM157.115 21.912H172.539C173.99 21.912 175.249 21.6347 176.315 21.08C177.382 20.4827 178.214 19.672 178.811 18.648C179.451 17.5813 179.771 16.3867 179.771 15.064C179.771 12.76 179.153 11.0747 177.915 10.008C176.678 8.89867 175.035 8.344 172.987 8.344H157.115V21.912ZM205.067 47.768C201.824 47.768 199.221 46.936 197.259 45.272C195.296 43.608 194.315 40.7067 194.315 36.568V13.336H199.947V35.8C199.947 37.208 200.117 38.36 200.459 39.256C200.8 40.152 201.291 40.856 201.931 41.368C202.571 41.88 203.317 42.2427 204.171 42.456C205.067 42.6693 206.027 42.776 207.051 42.776C208.672 42.776 210.165 42.392 211.531 41.624C212.896 40.856 214.005 39.7467 214.859 38.296C215.755 36.8027 216.203 35.0747 216.203 33.112V13.336H221.835V47H217.291L216.779 41.944H216.331C215.435 43.3093 214.411 44.4187 213.259 45.272C212.149 46.1253 210.891 46.744 209.483 47.128C208.117 47.5547 206.645 47.768 205.067 47.768ZM242.028 47.768C239.255 47.768 236.866 47.1493 234.86 45.912C232.898 44.6747 231.362 42.7547 230.252 40.152C229.186 37.5067 228.652 34.0933 228.652 29.912C228.652 25.944 229.207 22.68 230.316 20.12C231.426 17.56 232.962 15.6613 234.924 14.424C236.887 13.1867 239.17 12.568 241.772 12.568C243.266 12.568 244.652 12.7387 245.932 13.08C247.212 13.4213 248.343 13.9547 249.324 14.68C250.348 15.4053 251.244 16.3653 252.012 17.56H252.396V0.727997H258.028V47H253.484L252.972 42.2H252.524C251.372 44.0773 249.879 45.4853 248.044 46.424C246.21 47.32 244.204 47.768 242.028 47.768ZM243.372 42.84C245.506 42.84 247.234 42.3707 248.556 41.432C249.879 40.4933 250.839 39.128 251.436 37.336C252.076 35.544 252.396 33.3253 252.396 30.68V29.656C252.396 27.352 252.162 25.4107 251.692 23.832C251.223 22.2533 250.583 20.9947 249.772 20.056C248.962 19.1173 248.023 18.456 246.956 18.072C245.89 17.688 244.759 17.496 243.564 17.496C241.474 17.496 239.767 17.9227 238.444 18.776C237.122 19.5867 236.14 20.888 235.5 22.68C234.86 24.4293 234.54 26.712 234.54 29.528V30.872C234.54 33.7733 234.882 36.12 235.564 37.912C236.247 39.6613 237.228 40.92 238.508 41.688C239.831 42.456 241.452 42.84 243.372 42.84ZM278.341 47.768C275.567 47.768 273.178 47.1493 271.173 45.912C269.21 44.6747 267.674 42.7547 266.565 40.152C265.498 37.5067 264.965 34.0933 264.965 29.912C264.965 25.944 265.519 22.68 266.629 20.12C267.738 17.56 269.274 15.6613 271.237 14.424C273.199 13.1867 275.482 12.568 278.085 12.568C279.578 12.568 280.965 12.7387 282.245 13.08C283.525 13.4213 284.655 13.9547 285.637 14.68C286.661 15.4053 287.557 16.3653 288.325 17.56H288.709V0.727997H294.341V47H289.797L289.285 42.2H288.837C287.685 44.0773 286.191 45.4853 284.357 46.424C282.522 47.32 280.517 47.768 278.341 47.768ZM279.685 42.84C281.818 42.84 283.546 42.3707 284.869 41.432C286.191 40.4933 287.151 39.128 287.749 37.336C288.389 35.544 288.709 33.3253 288.709 30.68V29.656C288.709 27.352 288.474 25.4107 288.005 23.832C287.535 22.2533 286.895 20.9947 286.085 20.056C285.274 19.1173 284.335 18.456 283.269 18.072C282.202 17.688 281.071 17.496 279.877 17.496C277.786 17.496 276.079 17.9227 274.757 18.776C273.434 19.5867 272.453 20.888 271.813 22.68C271.173 24.4293 270.853 26.712 270.853 29.528V30.872C270.853 33.7733 271.194 36.12 271.877 37.912C272.559 39.6613 273.541 40.92 274.821 41.688C276.143 42.456 277.765 42.84 279.685 42.84ZM306.077 58.648C305.053 58.648 304.157 58.5627 303.389 58.392C302.664 58.264 302.173 58.1787 301.917 58.136V54.04H304.733C305.757 54.04 306.76 53.8267 307.741 53.4C308.723 52.9733 309.64 52.248 310.493 51.224C311.347 50.2 312.072 48.792 312.669 47L299.613 13.336H305.501L312.221 30.68C312.52 31.4907 312.861 32.4933 313.245 33.688C313.672 34.84 314.077 36.0347 314.461 37.272C314.888 38.5093 315.229 39.5973 315.485 40.536H315.869C316.04 39.8533 316.253 39.0853 316.509 38.232C316.765 37.3787 317.021 36.504 317.277 35.608C317.576 34.6693 317.853 33.7947 318.109 32.984C318.408 32.1307 318.643 31.384 318.813 30.744L324.509 13.336H330.205L318.813 46.04C318.173 47.8747 317.469 49.56 316.701 51.096C315.933 52.6747 315.08 54.0187 314.141 55.128C313.203 56.2373 312.072 57.0907 310.749 57.688C309.427 58.328 307.869 58.648 306.077 58.648Z" fill="black"/>
</svg>
