<svg width="301" height="50" viewBox="0 0 301 50" fill="none" xmlns="http://www.w3.org/2000/svg">
<rect x="61" width="10" height="10" fill="black"/>
<rect x="91" width="10" height="10" fill="black"/>
<rect x="171" width="10" height="10" fill="black"/>
<rect x="271" width="10" height="10" fill="black"/>
<rect x="61" y="10" width="10" height="10" fill="black"/>
<rect x="91" y="10" width="10" height="10" fill="black"/>
<rect x="151" y="10" width="10" height="10" fill="black"/>
<rect x="171" y="10" width="10" height="10" fill="black"/>
<rect x="211" y="10" width="10" height="10" fill="black"/>
<rect x="271" y="10" width="10" height="10" fill="black"/>
<rect x="291" y="10" width="10" height="10" fill="black"/>
<rect x="61" y="20" width="10" height="10" fill="black"/>
<rect x="91" y="20" width="10" height="10" fill="black"/>
<rect x="111" y="20" width="10" height="10" fill="black"/>
<rect x="121" y="20" width="10" height="10" fill="black"/>
<rect x="171" y="20" width="10" height="10" fill="black"/>
<rect x="231" y="20" width="10" height="10" fill="black"/>
<rect x="241" y="20" width="10" height="10" fill="black"/>
<rect x="271" y="20" width="10" height="10" fill="black"/>
<rect x="281" y="20" width="10" height="10" fill="black"/>
<rect x="61" y="30" width="10" height="10" fill="black"/>
<rect x="91" y="30" width="10" height="10" fill="black"/>
<rect x="111" y="30" width="10" height="10" fill="black"/>
<rect x="131" y="30" width="10" height="10" fill="black"/>
<rect x="151" y="30" width="10" height="10" fill="black"/>
<rect x="171" y="30" width="10" height="10" fill="black"/>
<rect x="211" y="30" width="10" height="10" fill="black"/>
<rect x="231" y="30" width="10" height="10" fill="black"/>
<rect x="251" y="30" width="10" height="10" fill="black"/>
<rect x="271" y="30" width="10" height="10" fill="black"/>
<rect x="291" y="30" width="10" height="10" fill="black"/>
<rect x="61" y="40" width="10" height="10" fill="black"/>
<rect x="71" y="40" width="10" height="10" fill="black"/>
<rect x="81" y="40" width="10" height="10" fill="black"/>
<rect x="91" y="40" width="10" height="10" fill="black"/>
<rect x="111" y="40" width="10" height="10" fill="black"/>
<rect x="131" y="40" width="10" height="10" fill="black"/>
<rect x="151" y="40" width="10" height="10" fill="black"/>
<rect x="171" y="40" width="10" height="10" fill="black"/>
<rect x="181" y="40" width="10" height="10" fill="black"/>
<rect x="191" y="40" width="10" height="10" fill="black"/>
<rect x="211" y="40" width="10" height="10" fill="black"/>
<rect x="231" y="40" width="10" height="10" fill="black"/>
<rect x="251" y="40" width="10" height="10" fill="black"/>
<rect x="271" y="40" width="10" height="10" fill="black"/>
<rect x="291" y="40" width="10" height="10" fill="black"/>
<rect x="33.3333" width="5.55556" height="5.55556" fill="black"/>
<rect x="38.8889" width="5.55556" height="5.55556" fill="black"/>
<rect x="44.4444" width="5.55556" height="5.55556" fill="black"/>
<rect x="27.7778" y="5.55557" width="5.55556" height="5.55556" fill="black"/>
<rect x="44.4444" y="5.55557" width="5.55556" height="5.55556" fill="black"/>
<rect x="22.2222" y="11.1111" width="5.55556" height="5.55556" fill="black"/>
<rect x="44.4444" y="11.1111" width="5.55556" height="5.55556" fill="black"/>
<rect x="16.6667" y="16.6667" width="5.55556" height="5.55556" fill="black"/>
<rect x="22.2222" y="16.6667" width="5.55556" height="5.55556" fill="black"/>
<rect x="27.7778" y="16.6667" width="5.55556" height="5.55556" fill="black"/>
<rect x="38.8889" y="16.6667" width="5.55556" height="5.55556" fill="black"/>
<rect x="11.1111" y="22.2222" width="5.55556" height="5.55556" fill="black"/>
<rect x="16.6667" y="22.2222" width="5.55556" height="5.55556" fill="black"/>
<rect x="27.7778" y="22.2222" width="5.55556" height="5.55556" fill="black"/>
<rect x="33.3333" y="22.2222" width="5.55556" height="5.55556" fill="black"/>
<rect x="5.55556" y="27.7778" width="5.55556" height="5.55556" fill="black"/>
<rect x="16.6667" y="27.7778" width="5.55556" height="5.55556" fill="black"/>
<rect x="22.2222" y="27.7778" width="5.55556" height="5.55556" fill="black"/>
<rect x="27.7778" y="27.7778" width="5.55556" height="5.55556" fill="black"/>
<rect y="33.3333" width="5.55556" height="5.55556" fill="black"/>
<rect x="22.2222" y="33.3333" width="5.55556" height="5.55556" fill="black"/>
<rect y="38.8889" width="5.55556" height="5.55556" fill="black"/>
<rect x="16.6667" y="38.8889" width="5.55556" height="5.55556" fill="black"/>
<rect y="44.4444" width="5.55556" height="5.55556" fill="black"/>
<rect x="5.55556" y="44.4444" width="5.55556" height="5.55556" fill="black"/>
<rect x="11.1111" y="44.4444" width="5.55556" height="5.55556" fill="black"/>
</svg>
