<svg width="70" height="70" viewBox="0 0 70 70" fill="none" xmlns="http://www.w3.org/2000/svg">
<rect x="20" width="10" height="10" fill="black"/>
<rect x="30" width="10" height="10" fill="black"/>
<rect x="40" width="10" height="10" fill="black"/>
<rect x="10" y="10" width="10" height="10" fill="black"/>
<rect x="50" y="10" width="10" height="10" fill="black"/>
<rect y="20" width="10" height="10" fill="black"/>
<rect x="30" y="20" width="10" height="10" fill="black"/>
<rect x="60" y="20" width="10" height="10" fill="black"/>
<rect y="30" width="10" height="10" fill="black"/>
<rect x="20" y="30" width="10" height="10" fill="black"/>
<rect x="30" y="30" width="10" height="10" fill="black"/>
<rect x="40" y="30" width="10" height="10" fill="black"/>
<rect x="60" y="30" width="10" height="10" fill="black"/>
<rect y="40" width="10" height="10" fill="black"/>
<rect x="30" y="40" width="10" height="10" fill="black"/>
<rect x="60" y="40" width="10" height="10" fill="black"/>
<rect x="10" y="50" width="10" height="10" fill="black"/>
<rect x="50" y="50" width="10" height="10" fill="black"/>
<rect x="20" y="60" width="10" height="10" fill="black"/>
<rect x="30" y="60" width="10" height="10" fill="black"/>
<rect x="40" y="60" width="10" height="10" fill="black"/>
</svg>
