<svg width="71" height="71" viewBox="0 0 71 71" fill="none" xmlns="http://www.w3.org/2000/svg">
<circle cx="35.5" cy="35.5" r="35.5" fill="black"/>
<rect x="43.3333" y="10" width="5.55556" height="5.55556" fill="white"/>
<rect x="48.8889" y="10" width="5.55556" height="5.55556" fill="white"/>
<rect x="54.4444" y="10" width="5.55556" height="5.55556" fill="white"/>
<rect x="37.7778" y="15.5555" width="5.55556" height="5.55556" fill="white"/>
<rect x="54.4444" y="15.5555" width="5.55556" height="5.55556" fill="white"/>
<rect x="32.2222" y="21.1111" width="5.55556" height="5.55556" fill="white"/>
<rect x="54.4444" y="21.1111" width="5.55556" height="5.55556" fill="white"/>
<rect x="26.6667" y="26.6667" width="5.55556" height="5.55556" fill="white"/>
<rect x="32.2222" y="26.6667" width="5.55556" height="5.55556" fill="white"/>
<rect x="37.7778" y="26.6667" width="5.55556" height="5.55556" fill="white"/>
<rect x="48.8889" y="26.6667" width="5.55556" height="5.55556" fill="white"/>
<rect x="21.1111" y="32.2222" width="5.55556" height="5.55556" fill="white"/>
<rect x="26.6667" y="32.2222" width="5.55556" height="5.55556" fill="white"/>
<rect x="37.7778" y="32.2222" width="5.55556" height="5.55556" fill="white"/>
<rect x="43.3333" y="32.2222" width="5.55556" height="5.55556" fill="white"/>
<rect x="15.5556" y="37.7778" width="5.55556" height="5.55556" fill="white"/>
<rect x="26.6667" y="37.7778" width="5.55556" height="5.55556" fill="white"/>
<rect x="32.2222" y="37.7778" width="5.55556" height="5.55556" fill="white"/>
<rect x="37.7778" y="37.7778" width="5.55556" height="5.55556" fill="white"/>
<rect x="10" y="43.3334" width="5.55556" height="5.55556" fill="white"/>
<rect x="32.2222" y="43.3334" width="5.55556" height="5.55556" fill="white"/>
<rect x="10" y="48.8889" width="5.55556" height="5.55556" fill="white"/>
<rect x="26.6667" y="48.8889" width="5.55556" height="5.55556" fill="white"/>
<rect x="10" y="54.4445" width="5.55556" height="5.55556" fill="white"/>
<rect x="15.5556" y="54.4445" width="5.55556" height="5.55556" fill="white"/>
<rect x="21.1111" y="54.4445" width="5.55556" height="5.55556" fill="white"/>
</svg>
