<svg width="80" height="90" viewBox="0 0 80 90" fill="none" xmlns="http://www.w3.org/2000/svg">
<rect x="30" width="10" height="10" fill="black"/>
<rect x="40" width="10" height="10" fill="black"/>
<rect x="20" y="10" width="10" height="10" fill="black"/>
<rect x="30" y="10" width="10" height="10" fill="black"/>
<rect x="40" y="10" width="10" height="10" fill="black"/>
<rect x="50" y="10" width="10" height="10" fill="#FF0505"/>
<rect x="10" y="20" width="10" height="10" fill="black"/>
<rect x="20" y="20" width="10" height="10" fill="black"/>
<rect x="50" y="20" width="10" height="10" fill="#FF0000"/>
<rect x="60" y="20" width="10" height="10" fill="#FF0A0A"/>
<rect x="70" y="10" width="10" height="10" fill="#FF0A0A"/>
<rect x="70" y="20" width="10" height="10" fill="#FF0A0A"/>
<rect x="70" y="30" width="10" height="10" fill="#FF0A0A"/>
<rect x="50" y="30" width="10" height="10" fill="#FF0A0A"/>
<rect x="60" y="10" width="10" height="10" fill="#FF0A0A"/>
<rect x="10" y="30" width="10" height="10" fill="black"/>
<rect x="60" y="30" width="10" height="10" fill="black"/>
<rect x="10" y="40" width="10" height="10" fill="black"/>
<rect x="60" y="40" width="10" height="10" fill="black"/>
<rect y="50" width="10" height="10" fill="black"/>
<rect x="10" y="50" width="10" height="10" fill="black"/>
<rect x="60" y="50" width="10" height="10" fill="black"/>
<rect x="70" y="50" width="10" height="10" fill="black"/>
<rect y="60" width="10" height="10" fill="black"/>
<rect x="70" y="60" width="10" height="10" fill="black"/>
<rect y="70" width="10" height="10" fill="black"/>
<rect x="10" y="70" width="10" height="10" fill="black"/>
<rect x="20" y="70" width="10" height="10" fill="black"/>
<rect x="30" y="70" width="10" height="10" fill="black"/>
<rect x="40" y="70" width="10" height="10" fill="black"/>
<rect x="50" y="70" width="10" height="10" fill="black"/>
<rect x="60" y="70" width="10" height="10" fill="black"/>
<rect x="70" y="70" width="10" height="10" fill="black"/>
<rect x="30" y="80" width="10" height="10" fill="black"/>
<rect x="40" y="80" width="10" height="10" fill="black"/>
<rect x="60" y="30" width="10" height="10" fill="#FF0A0A"/>
</svg>
