<svg width="240" height="50" viewBox="0 0 240 50" fill="none" xmlns="http://www.w3.org/2000/svg">
<rect width="10" height="10" fill="white"/>
<rect x="30" width="10" height="10" fill="white"/>
<rect x="110" width="10" height="10" fill="white"/>
<rect x="210" width="10" height="10" fill="white"/>
<rect y="10" width="10" height="10" fill="white"/>
<rect x="30" y="10" width="10" height="10" fill="white"/>
<rect x="90" y="10" width="10" height="10" fill="white"/>
<rect x="110" y="10" width="10" height="10" fill="white"/>
<rect x="150" y="10" width="10" height="10" fill="white"/>
<rect x="210" y="10" width="10" height="10" fill="white"/>
<rect x="230" y="10" width="10" height="10" fill="white"/>
<rect y="20" width="10" height="10" fill="white"/>
<rect x="30" y="20" width="10" height="10" fill="white"/>
<rect x="50" y="20" width="10" height="10" fill="white"/>
<rect x="60" y="20" width="10" height="10" fill="white"/>
<rect x="110" y="20" width="10" height="10" fill="white"/>
<rect x="170" y="20" width="10" height="10" fill="white"/>
<rect x="180" y="20" width="10" height="10" fill="white"/>
<rect x="210" y="20" width="10" height="10" fill="white"/>
<rect x="220" y="20" width="10" height="10" fill="white"/>
<rect y="30" width="10" height="10" fill="white"/>
<rect x="30" y="30" width="10" height="10" fill="white"/>
<rect x="50" y="30" width="10" height="10" fill="white"/>
<rect x="70" y="30" width="10" height="10" fill="white"/>
<rect x="90" y="30" width="10" height="10" fill="white"/>
<rect x="110" y="30" width="10" height="10" fill="white"/>
<rect x="150" y="30" width="10" height="10" fill="white"/>
<rect x="170" y="30" width="10" height="10" fill="white"/>
<rect x="190" y="30" width="10" height="10" fill="white"/>
<rect x="210" y="30" width="10" height="10" fill="white"/>
<rect x="230" y="30" width="10" height="10" fill="white"/>
<rect y="40" width="10" height="10" fill="white"/>
<rect x="10" y="40" width="10" height="10" fill="white"/>
<rect x="20" y="40" width="10" height="10" fill="white"/>
<rect x="30" y="40" width="10" height="10" fill="white"/>
<rect x="50" y="40" width="10" height="10" fill="white"/>
<rect x="70" y="40" width="10" height="10" fill="white"/>
<rect x="90" y="40" width="10" height="10" fill="white"/>
<rect x="110" y="40" width="10" height="10" fill="white"/>
<rect x="120" y="40" width="10" height="10" fill="white"/>
<rect x="130" y="40" width="10" height="10" fill="white"/>
<rect x="150" y="40" width="10" height="10" fill="white"/>
<rect x="170" y="40" width="10" height="10" fill="white"/>
<rect x="190" y="40" width="10" height="10" fill="white"/>
<rect x="210" y="40" width="10" height="10" fill="white"/>
<rect x="230" y="40" width="10" height="10" fill="white"/>
</svg>
